HIERARCHY
ROOT Hips
{
    OFFSET 0.000000 0.000000 0.000000
    CHANNELS 6 Xposition Yposition Zposition Zrotation Xrotation Yrotation
    JOINT Spine
    {
        OFFSET -0.000000 7.858286 0.000000
        CHANNELS 3 Zrotation Xrotation Yrotation
        JOINT Spine1
        {
            OFFSET -0.000000 25.138355 0.000000
            CHANNELS 3 Zrotation Xrotation Yrotation
            JOINT Neck
            {
                OFFSET -0.000000 25.035116 2.275919
                CHANNELS 3 Zrotation Xrotation Yrotation
                JOINT Head
                {
                    OFFSET -0.000000 13.416585 -1.916655
                    CHANNELS 3 Zrotation Xrotation Yrotation
                    End Site
                    {
                        OFFSET -0.000000 23.958189 0.000000
                    }
                }
            }
            JOINT LeftShoulder
            {
                OFFSET 3.815342 24.034578 -0.234509
                CHANNELS 3 Zrotation Xrotation Yrotation
                JOINT LeftArm
                {
                    OFFSET 8.622727 0.000000 0.000000
                    CHANNELS 3 Zrotation Xrotation Yrotation
                    JOINT LeftForeArm
                    {
                        OFFSET 31.706440 0.000000 0.000000
                        CHANNELS 3 Zrotation Xrotation Yrotation
                        JOINT LeftHand
                        {
                            OFFSET 23.773136 0.000000 0.000000
                            CHANNELS 3 Zrotation Xrotation Yrotation
                            End Site
                            {
                                OFFSET 14.374913 0.000000 0.000000
                            }
                        }
                    }
                }
            }
            JOINT RightShoulder
            {
                OFFSET -3.836082 24.034578 -0.234509
                CHANNELS 3 Zrotation Xrotation Yrotation
                JOINT RightArm
                {
                    OFFSET -8.622727 0.000000 0.000000
                    CHANNELS 3 Zrotation Xrotation Yrotation
                    JOINT RightForeArm
                    {
                        OFFSET -31.706440 0.000000 0.000000
                        CHANNELS 3 Zrotation Xrotation Yrotation
                        JOINT RightHand
                        {
                            OFFSET -23.773136 0.000000 0.000000
                            CHANNELS 3 Zrotation Xrotation Yrotation
                            End Site
                            {
                                OFFSET -14.374913 0.000000 0.000000
                            }
                        }
                    }
                }
            }
        }
    }
    JOINT LeftUpLeg
    {
        OFFSET 9.583276 0.000000 0.000000
        CHANNELS 3 Zrotation Xrotation Yrotation
        JOINT LeftLeg
        {
            OFFSET -0.000000 -36.453522 0.000000
            CHANNELS 3 Zrotation Xrotation Yrotation
            JOINT LeftFoot
            {
                OFFSET -0.000000 -41.465855 0.000000
                CHANNELS 3 Zrotation Xrotation Yrotation
                JOINT LeftToeBase
                {
                    OFFSET -0.000000 -6.229129 14.374913
                    CHANNELS 3 Zrotation Xrotation Yrotation
                    End Site
                    {
                        OFFSET -0.000000 0.000000 3.833310
                    }
                }
            }
        }
    }
    JOINT RightUpLeg
    {
        OFFSET -9.583276 0.000000 0.000000
        CHANNELS 3 Zrotation Xrotation Yrotation
        JOINT RightLeg
        {
            OFFSET -0.000000 -36.453522 0.000000
            CHANNELS 3 Zrotation Xrotation Yrotation
            JOINT RightFoot
            {
                OFFSET -0.000000 -41.465855 0.000000
                CHANNELS 3 Zrotation Xrotation Yrotation
                JOINT RightToeBase
                {
                    OFFSET -0.000000 -6.229129 14.374913
                    CHANNELS 3 Zrotation Xrotation Yrotation
                    End Site
                    {
                        OFFSET -0.000000 0.000000 3.833310
                    }
                }
            }
        }
    }
}
MOTION
Frames:    8
Frame Time:    0.004000
-12.630062    77.144180    -205.377167    1.900762    0.008571    -0.639229    -1.426863    -8.712744    0.470090    0.463002    -1.381615    0.584330    -3.101255    31.821518    0.862846    6.829279    -7.504061    1.831138    8.918067    3.111171    4.464554    -9.023976    0.880629    -3.867057    3.019471    -3.667440    0.785292    8.491922    -3.959402    -3.661378    -8.736566    0.907138    5.886156    4.173967    0.077505    -0.744044    -2.171285    -3.418149    1.726361    -10.592879    -3.684537    3.231087    0.276012    8.142625    0.045256    -8.409051    -5.770646    2.957031    16.667187    -10.551252    5.224967    0.000000    0.000000    0.000000    -0.987019    3.357402    2.139594    4.011048    6.452606    7.228185    -21.662601    -14.116161    -22.108616    0.000000    0.000000    0.000000    
-12.626237    77.145805    -205.379013    1.908461    0.014843    -0.642232    -1.435992    -8.719465    0.475112    0.474287    -1.371595    0.590219    -3.018701    31.873219    0.868001    6.703218    -7.592189    1.826561    8.911121    3.112877    4.463005    -9.025636    0.932694    -3.877637    3.014162    -3.699903    0.787924    8.522157    -3.993294    -3.666914    -8.747020    0.910343    5.872916    4.186347    0.086447    -0.730270    -2.178430    -3.427003    1.730081    -10.533399    -3.692326    3.239913    0.247569    8.157074    0.078544    -8.382095    -5.820087    3.003066    16.620232    -10.532129    5.157378    0.000000    0.000000    0.000000    -1.000690    3.350820    2.167423    4.022961    6.442149    7.189534    -21.648489    -14.121208    -22.099415    0.000000    0.000000    0.000000    
-12.624022    77.144981    -205.378860    1.908053    0.014558    -0.626983    -1.452578    -8.731071    0.478945    0.501820    -1.320970    0.595690    -3.050429    31.732067    0.838350    6.780828    -7.436818    1.802535    8.937754    3.102449    4.480505    -9.064590    0.939900    -3.924127    3.014392    -3.693275    0.789354    8.492285    -3.986298    -3.674348    -8.773648    0.902472    5.806421    4.203105    0.093311    -0.696300    -2.178797    -3.446617    1.746862    -10.526679    -3.711218    3.237406    0.262793    8.128703    0.068795    -8.411016    -5.765877    2.975459    16.673189    -10.559862    5.189140    0.000000    0.000000    0.000000    -1.005653    3.357423    2.167682    4.030137    6.440292    7.236900    -21.649488    -14.113776    -22.159046    0.000000    0.000000    0.000000    
-12.621868    77.146034    -205.380920    1.909296    0.020580    -0.616062    -1.450679    -8.728581    0.477876    0.499176    -1.327695    0.594400    -2.959366    31.800732    0.839599    6.645030    -7.541646    1.793548    8.941524    3.102023    4.477811    -9.076136    0.981838    -3.933681    3.029795    -3.713140    0.795527    8.463587    -4.006377    -3.686357    -8.756530    0.920922    5.793889    4.193922    0.096761    -0.682479    -2.181052    -3.445104    1.746379    -10.476312    -3.708171    3.236671    0.245781    8.133002    0.070770    -8.382651    -5.785604    2.994498    16.675713    -10.561234    5.159434    0.000000    0.000000    0.000000    -0.999818    3.341573    2.092976    4.009596    6.457838    7.228817    -21.581448    -14.152531    -22.086254    0.000000    0.000000    0.000000    
-12.619747    77.146576    -205.381393    1.914837    0.019928    -0.608083    -1.437411    -8.712976    0.465039    0.474390    -1.371768    0.580175    -3.047574    31.836201    0.856408    6.754956    -7.501367    1.816722    8.932432    3.103212    4.456247    -9.064422    1.008498    -3.894533    3.023051    -3.721370    0.791733    8.455314    -4.013610    -3.678352    -8.722958    0.935129    5.872188    4.177900    0.056245    -0.715646    -2.191485    -3.495924    1.749766    -10.861603    -3.745223    2.978764    0.245251    8.130225    0.057303    -8.392930    -5.783483    3.008535    16.627026    -10.543763    5.148631    0.000000    0.000000    0.000000    -1.014231    3.347133    2.136624    4.028118    6.453378    7.262567    -21.602898    -14.115163    -22.156540    0.000000    0.000000    0.000000    
-12.618015    77.143776    -205.385162    1.912362    0.029739    -0.584443    -1.439334    -8.712730    0.455973    0.485917    -1.381636    0.571424    -2.959478    31.906830    0.865063    6.606027    -7.597605    1.811707    8.917254    3.105832    4.452707    -9.074374    1.083408    -3.909004    3.053851    -3.760979    0.812216    8.444673    -4.053718    -3.679705    -8.722672    0.950257    5.867736    4.176233    0.043668    -0.701470    -2.185057    -3.516280    1.753200    -10.831031    -3.764029    2.970706    0.251458    8.125727    0.041339    -8.395024    -5.799075    2.967952    16.684225    -10.546503    5.180499    0.000000    0.000000    0.000000    -1.009814    3.342265    2.131901    4.032480    6.439129    7.167546    -21.687469    -14.122317    -22.106274    0.000000    0.000000    0.000000    
-12.615069    77.145042    -205.384064    1.911952    0.022855    -0.579721    -1.431303    -8.705903    0.458574    0.477308    -1.377195    0.573278    -3.011615    31.839342    0.846195    6.699592    -7.472033    1.798422    8.924554    3.107339    4.447390    -9.084034    1.043911    -3.913316    3.036310    -3.744851    0.805056    8.431517    -4.038960    -3.708194    -8.706932    0.959175    5.867438    4.180363    0.068999    -0.706102    -2.204028    -3.532501    1.765801    -10.716847    -3.782347    3.030558    0.247820    8.120466    0.060964    -8.387520    -5.779340    2.957082    16.655836    -10.547931    5.163210    0.000000    0.000000    0.000000    -1.005426    3.350550    2.138738    4.017508    6.434615    7.114504    -21.563154    -14.166541    -22.051153    0.000000    0.000000    0.000000    
-12.612497    77.145218    -205.383987    1.914893    0.018538    -0.567340    -1.434380    -8.695568    0.455795    0.485510    -1.383462    0.570669    -3.028706    31.829662    0.852939    6.712998    -7.441383    1.804207    8.915846    3.120198    4.445761    -9.095674    1.119279    -3.928533    3.042769    -3.804111    0.809420    8.515435    -4.099411    -3.685889    -8.717508    0.962888    5.867990    4.186218    0.030705    -0.699552    -2.162435    -3.513124    1.771489    -10.825937    -3.764894    3.014380    0.246164    8.123720    0.059923    -8.395404    -5.778126    2.949313    16.700972    -10.547567    5.160967    0.000000    0.000000    0.000000    -1.010509    3.344874    2.074726    4.012576    6.468987    7.270194    -21.619062    -14.124661    -22.142941    0.000000    0.000000    0.000000    
